<mxfile host="app.diagrams.net" agent="Mozilla/5.0 (Windows NT 10.0; Win64; x64) AppleWebKit/537.36 (KHTML, like Gecko) Chrome/132.0.0.0 Safari/537.36" version="26.0.14">
  <diagram name="Página-1" id="ENhfQwFYLos144fQK5TW">
    <mxGraphModel dx="1613" dy="706" grid="1" gridSize="10" guides="1" tooltips="1" connect="1" arrows="1" fold="1" page="1" pageScale="1" pageWidth="827" pageHeight="1169" math="0" shadow="0">
      <root>
        <mxCell id="0" />
        <mxCell id="1" parent="0" />
        <mxCell id="m8OP1QcmDbiN_umO_oYW-4" style="edgeStyle=orthogonalEdgeStyle;rounded=0;orthogonalLoop=1;jettySize=auto;html=1;" edge="1" parent="1" source="m8OP1QcmDbiN_umO_oYW-2" target="m8OP1QcmDbiN_umO_oYW-3">
          <mxGeometry relative="1" as="geometry" />
        </mxCell>
        <mxCell id="m8OP1QcmDbiN_umO_oYW-2" value="Start" style="strokeWidth=2;html=1;shape=mxgraph.flowchart.start_2;whiteSpace=wrap;fillColor=#ffff88;strokeColor=#36393d;" vertex="1" parent="1">
          <mxGeometry x="100" y="660" width="100" height="100" as="geometry" />
        </mxCell>
        <mxCell id="m8OP1QcmDbiN_umO_oYW-8" style="edgeStyle=orthogonalEdgeStyle;rounded=0;orthogonalLoop=1;jettySize=auto;html=1;" edge="1" parent="1" source="m8OP1QcmDbiN_umO_oYW-3" target="m8OP1QcmDbiN_umO_oYW-6">
          <mxGeometry relative="1" as="geometry" />
        </mxCell>
        <mxCell id="m8OP1QcmDbiN_umO_oYW-3" value="Receive 1º&lt;div&gt;Number&lt;/div&gt;" style="shape=parallelogram;html=1;strokeWidth=2;perimeter=parallelogramPerimeter;whiteSpace=wrap;rounded=1;arcSize=12;size=0.23;fillColor=#cce5ff;strokeColor=#36393d;" vertex="1" parent="1">
          <mxGeometry x="100" y="820" width="100" height="60" as="geometry" />
        </mxCell>
        <mxCell id="m8OP1QcmDbiN_umO_oYW-12" style="edgeStyle=orthogonalEdgeStyle;rounded=0;orthogonalLoop=1;jettySize=auto;html=1;" edge="1" parent="1" source="m8OP1QcmDbiN_umO_oYW-6" target="m8OP1QcmDbiN_umO_oYW-9">
          <mxGeometry relative="1" as="geometry" />
        </mxCell>
        <mxCell id="m8OP1QcmDbiN_umO_oYW-6" value="Receive 2º&lt;div&gt;Number&lt;/div&gt;" style="shape=parallelogram;html=1;strokeWidth=2;perimeter=parallelogramPerimeter;whiteSpace=wrap;rounded=1;arcSize=12;size=0.23;fillColor=#cce5ff;strokeColor=#36393d;" vertex="1" parent="1">
          <mxGeometry x="100" y="920" width="100" height="60" as="geometry" />
        </mxCell>
        <mxCell id="m8OP1QcmDbiN_umO_oYW-9" value="Do Sum of the nº goten" style="rounded=1;whiteSpace=wrap;html=1;absoluteArcSize=1;arcSize=14;strokeWidth=2;fillColor=#cdeb8b;strokeColor=#36393d;" vertex="1" parent="1">
          <mxGeometry x="100" y="1000" width="100" height="70" as="geometry" />
        </mxCell>
        <mxCell id="m8OP1QcmDbiN_umO_oYW-15" style="edgeStyle=orthogonalEdgeStyle;rounded=0;orthogonalLoop=1;jettySize=auto;html=1;" edge="1" parent="1" source="m8OP1QcmDbiN_umO_oYW-11" target="m8OP1QcmDbiN_umO_oYW-14">
          <mxGeometry relative="1" as="geometry" />
        </mxCell>
        <mxCell id="m8OP1QcmDbiN_umO_oYW-11" value="Show the sum result" style="strokeWidth=2;html=1;shape=mxgraph.flowchart.display;whiteSpace=wrap;fillColor=#cce5ff;strokeColor=#36393d;" vertex="1" parent="1">
          <mxGeometry x="100" y="1109" width="100" height="60" as="geometry" />
        </mxCell>
        <mxCell id="m8OP1QcmDbiN_umO_oYW-13" style="edgeStyle=orthogonalEdgeStyle;rounded=0;orthogonalLoop=1;jettySize=auto;html=1;entryX=0.5;entryY=0;entryDx=0;entryDy=0;entryPerimeter=0;" edge="1" parent="1" source="m8OP1QcmDbiN_umO_oYW-9" target="m8OP1QcmDbiN_umO_oYW-11">
          <mxGeometry relative="1" as="geometry" />
        </mxCell>
        <mxCell id="m8OP1QcmDbiN_umO_oYW-14" value="END" style="strokeWidth=2;html=1;shape=mxgraph.flowchart.start_1;whiteSpace=wrap;fillColor=#eeeeee;strokeColor=#36393d;" vertex="1" parent="1">
          <mxGeometry x="100" y="1210" width="100" height="360" as="geometry" />
        </mxCell>
        <mxCell id="m8OP1QcmDbiN_umO_oYW-16" style="edgeStyle=orthogonalEdgeStyle;rounded=0;orthogonalLoop=1;jettySize=auto;html=1;" edge="1" target="m8OP1QcmDbiN_umO_oYW-18" parent="1">
          <mxGeometry relative="1" as="geometry">
            <mxPoint x="450" y="760" as="sourcePoint" />
          </mxGeometry>
        </mxCell>
        <mxCell id="m8OP1QcmDbiN_umO_oYW-17" style="edgeStyle=orthogonalEdgeStyle;rounded=0;orthogonalLoop=1;jettySize=auto;html=1;" edge="1" source="m8OP1QcmDbiN_umO_oYW-18" target="m8OP1QcmDbiN_umO_oYW-20" parent="1">
          <mxGeometry relative="1" as="geometry" />
        </mxCell>
        <mxCell id="m8OP1QcmDbiN_umO_oYW-18" value="Receive nº height" style="shape=parallelogram;html=1;strokeWidth=2;perimeter=parallelogramPerimeter;whiteSpace=wrap;rounded=1;arcSize=12;size=0.23;fillColor=#cce5ff;strokeColor=#36393d;" vertex="1" parent="1">
          <mxGeometry x="400" y="820" width="100" height="60" as="geometry" />
        </mxCell>
        <mxCell id="m8OP1QcmDbiN_umO_oYW-29" style="edgeStyle=orthogonalEdgeStyle;rounded=0;orthogonalLoop=1;jettySize=auto;html=1;entryX=0.5;entryY=0;entryDx=0;entryDy=0;" edge="1" parent="1" source="m8OP1QcmDbiN_umO_oYW-20" target="m8OP1QcmDbiN_umO_oYW-28">
          <mxGeometry relative="1" as="geometry" />
        </mxCell>
        <mxCell id="m8OP1QcmDbiN_umO_oYW-20" value="Receive nº Base" style="shape=parallelogram;html=1;strokeWidth=2;perimeter=parallelogramPerimeter;whiteSpace=wrap;rounded=1;arcSize=12;size=0.23;fillColor=#cce5ff;strokeColor=#36393d;" vertex="1" parent="1">
          <mxGeometry x="400" y="920" width="100" height="60" as="geometry" />
        </mxCell>
        <mxCell id="m8OP1QcmDbiN_umO_oYW-21" value="Do multiplication of the nº base and the nº goten in the division" style="rounded=1;whiteSpace=wrap;html=1;absoluteArcSize=1;arcSize=14;strokeWidth=2;fillColor=#cdeb8b;strokeColor=#36393d;" vertex="1" parent="1">
          <mxGeometry x="400" y="1090" width="100" height="70" as="geometry" />
        </mxCell>
        <mxCell id="m8OP1QcmDbiN_umO_oYW-22" style="edgeStyle=orthogonalEdgeStyle;rounded=0;orthogonalLoop=1;jettySize=auto;html=1;" edge="1" source="m8OP1QcmDbiN_umO_oYW-23" parent="1">
          <mxGeometry relative="1" as="geometry">
            <mxPoint x="450" y="1210" as="targetPoint" />
          </mxGeometry>
        </mxCell>
        <mxCell id="m8OP1QcmDbiN_umO_oYW-32" style="edgeStyle=orthogonalEdgeStyle;rounded=0;orthogonalLoop=1;jettySize=auto;html=1;" edge="1" parent="1" source="m8OP1QcmDbiN_umO_oYW-23" target="m8OP1QcmDbiN_umO_oYW-31">
          <mxGeometry relative="1" as="geometry" />
        </mxCell>
        <mxCell id="m8OP1QcmDbiN_umO_oYW-23" value="Show the multiplication result" style="strokeWidth=2;html=1;shape=mxgraph.flowchart.display;whiteSpace=wrap;fillColor=#cce5ff;strokeColor=#36393d;" vertex="1" parent="1">
          <mxGeometry x="400" y="1190" width="100" height="60" as="geometry" />
        </mxCell>
        <mxCell id="m8OP1QcmDbiN_umO_oYW-24" style="edgeStyle=orthogonalEdgeStyle;rounded=0;orthogonalLoop=1;jettySize=auto;html=1;entryX=0.5;entryY=0;entryDx=0;entryDy=0;entryPerimeter=0;" edge="1" source="m8OP1QcmDbiN_umO_oYW-21" target="m8OP1QcmDbiN_umO_oYW-23" parent="1">
          <mxGeometry relative="1" as="geometry" />
        </mxCell>
        <mxCell id="m8OP1QcmDbiN_umO_oYW-25" value="Start" style="strokeWidth=2;html=1;shape=mxgraph.flowchart.start_2;whiteSpace=wrap;fillColor=#ffff88;strokeColor=#36393d;" vertex="1" parent="1">
          <mxGeometry x="400" y="660" width="100" height="100" as="geometry" />
        </mxCell>
        <mxCell id="m8OP1QcmDbiN_umO_oYW-30" style="edgeStyle=orthogonalEdgeStyle;rounded=0;orthogonalLoop=1;jettySize=auto;html=1;entryX=0.5;entryY=0;entryDx=0;entryDy=0;" edge="1" parent="1" source="m8OP1QcmDbiN_umO_oYW-28" target="m8OP1QcmDbiN_umO_oYW-21">
          <mxGeometry relative="1" as="geometry" />
        </mxCell>
        <mxCell id="m8OP1QcmDbiN_umO_oYW-28" value="Do a division of the height in half" style="rounded=1;whiteSpace=wrap;html=1;absoluteArcSize=1;arcSize=14;strokeWidth=2;fillColor=#cdeb8b;strokeColor=#36393d;" vertex="1" parent="1">
          <mxGeometry x="400" y="1000" width="100" height="70" as="geometry" />
        </mxCell>
        <mxCell id="m8OP1QcmDbiN_umO_oYW-31" value="END" style="strokeWidth=2;html=1;shape=mxgraph.flowchart.start_1;whiteSpace=wrap;fillColor=#eeeeee;strokeColor=#36393d;" vertex="1" parent="1">
          <mxGeometry x="400" y="1280" width="100" height="360" as="geometry" />
        </mxCell>
        <mxCell id="m8OP1QcmDbiN_umO_oYW-39" style="edgeStyle=orthogonalEdgeStyle;rounded=0;orthogonalLoop=1;jettySize=auto;html=1;entryX=0.5;entryY=0;entryDx=0;entryDy=0;" edge="1" parent="1" source="m8OP1QcmDbiN_umO_oYW-33" target="m8OP1QcmDbiN_umO_oYW-34">
          <mxGeometry relative="1" as="geometry" />
        </mxCell>
        <mxCell id="m8OP1QcmDbiN_umO_oYW-33" value="início" style="strokeWidth=2;html=1;shape=mxgraph.flowchart.start_2;whiteSpace=wrap;fillColor=#ffff88;strokeColor=#36393d;" vertex="1" parent="1">
          <mxGeometry x="640" y="660" width="100" height="100" as="geometry" />
        </mxCell>
        <mxCell id="m8OP1QcmDbiN_umO_oYW-42" style="edgeStyle=orthogonalEdgeStyle;rounded=0;orthogonalLoop=1;jettySize=auto;html=1;entryX=0.5;entryY=0;entryDx=0;entryDy=0;" edge="1" parent="1" source="m8OP1QcmDbiN_umO_oYW-34" target="m8OP1QcmDbiN_umO_oYW-35">
          <mxGeometry relative="1" as="geometry" />
        </mxCell>
        <mxCell id="m8OP1QcmDbiN_umO_oYW-34" value="obtenha um número" style="shape=parallelogram;html=1;strokeWidth=2;perimeter=parallelogramPerimeter;whiteSpace=wrap;rounded=1;arcSize=12;size=0.23;fillColor=#cce5ff;strokeColor=#36393d;" vertex="1" parent="1">
          <mxGeometry x="640" y="820" width="100" height="60" as="geometry" />
        </mxCell>
        <mxCell id="m8OP1QcmDbiN_umO_oYW-43" style="edgeStyle=orthogonalEdgeStyle;rounded=0;orthogonalLoop=1;jettySize=auto;html=1;entryX=0.5;entryY=0;entryDx=0;entryDy=0;" edge="1" parent="1" source="m8OP1QcmDbiN_umO_oYW-35" target="m8OP1QcmDbiN_umO_oYW-36">
          <mxGeometry relative="1" as="geometry" />
        </mxCell>
        <mxCell id="m8OP1QcmDbiN_umO_oYW-35" value="multiplique por 2" style="rounded=1;whiteSpace=wrap;html=1;absoluteArcSize=1;arcSize=14;strokeWidth=2;fillColor=#cdeb8b;strokeColor=#36393d;" vertex="1" parent="1">
          <mxGeometry x="640" y="920" width="100" height="70" as="geometry" />
        </mxCell>
        <mxCell id="m8OP1QcmDbiN_umO_oYW-36" value="Do a division of the height in half" style="rounded=1;whiteSpace=wrap;html=1;absoluteArcSize=1;arcSize=14;strokeWidth=2;fillColor=#cdeb8b;strokeColor=#36393d;" vertex="1" parent="1">
          <mxGeometry x="640" y="1039" width="100" height="70" as="geometry" />
        </mxCell>
        <mxCell id="m8OP1QcmDbiN_umO_oYW-45" style="edgeStyle=orthogonalEdgeStyle;rounded=0;orthogonalLoop=1;jettySize=auto;html=1;" edge="1" parent="1" source="m8OP1QcmDbiN_umO_oYW-37" target="m8OP1QcmDbiN_umO_oYW-38">
          <mxGeometry relative="1" as="geometry" />
        </mxCell>
        <mxCell id="m8OP1QcmDbiN_umO_oYW-37" value="Show the multiplication result" style="strokeWidth=2;html=1;shape=mxgraph.flowchart.display;whiteSpace=wrap;fillColor=#cce5ff;strokeColor=#36393d;" vertex="1" parent="1">
          <mxGeometry x="640" y="1150" width="100" height="60" as="geometry" />
        </mxCell>
        <mxCell id="m8OP1QcmDbiN_umO_oYW-38" value="END" style="strokeWidth=2;html=1;shape=mxgraph.flowchart.start_1;whiteSpace=wrap;fillColor=#eeeeee;strokeColor=#36393d;" vertex="1" parent="1">
          <mxGeometry x="640" y="1280" width="100" height="360" as="geometry" />
        </mxCell>
        <mxCell id="m8OP1QcmDbiN_umO_oYW-44" style="edgeStyle=orthogonalEdgeStyle;rounded=0;orthogonalLoop=1;jettySize=auto;html=1;entryX=0.5;entryY=0;entryDx=0;entryDy=0;entryPerimeter=0;" edge="1" parent="1" source="m8OP1QcmDbiN_umO_oYW-36" target="m8OP1QcmDbiN_umO_oYW-37">
          <mxGeometry relative="1" as="geometry" />
        </mxCell>
        <mxCell id="m8OP1QcmDbiN_umO_oYW-70" value="v" style="edgeStyle=orthogonalEdgeStyle;rounded=0;orthogonalLoop=1;jettySize=auto;html=1;entryX=0.5;entryY=0;entryDx=0;entryDy=0;" edge="1" parent="1" source="m8OP1QcmDbiN_umO_oYW-46" target="m8OP1QcmDbiN_umO_oYW-48">
          <mxGeometry relative="1" as="geometry" />
        </mxCell>
        <mxCell id="m8OP1QcmDbiN_umO_oYW-46" value="início" style="strokeWidth=2;html=1;shape=mxgraph.flowchart.start_2;whiteSpace=wrap;fillColor=#ffff88;strokeColor=#36393d;" vertex="1" parent="1">
          <mxGeometry x="950" y="660" width="100" height="100" as="geometry" />
        </mxCell>
        <mxCell id="m8OP1QcmDbiN_umO_oYW-68" style="edgeStyle=orthogonalEdgeStyle;rounded=0;orthogonalLoop=1;jettySize=auto;html=1;entryX=0.5;entryY=0;entryDx=0;entryDy=0;" edge="1" parent="1" source="m8OP1QcmDbiN_umO_oYW-47" target="m8OP1QcmDbiN_umO_oYW-49">
          <mxGeometry relative="1" as="geometry" />
        </mxCell>
        <mxCell id="m8OP1QcmDbiN_umO_oYW-47" value="obtenha 1º&lt;div&gt;&amp;nbsp;nota&lt;/div&gt;" style="shape=parallelogram;html=1;strokeWidth=2;perimeter=parallelogramPerimeter;whiteSpace=wrap;rounded=1;arcSize=12;size=0.23;fillColor=#cce5ff;strokeColor=#36393d;" vertex="1" parent="1">
          <mxGeometry x="950" y="880" width="100" height="60" as="geometry" />
        </mxCell>
        <mxCell id="m8OP1QcmDbiN_umO_oYW-69" style="edgeStyle=orthogonalEdgeStyle;rounded=0;orthogonalLoop=1;jettySize=auto;html=1;" edge="1" parent="1" source="m8OP1QcmDbiN_umO_oYW-48" target="m8OP1QcmDbiN_umO_oYW-47">
          <mxGeometry relative="1" as="geometry" />
        </mxCell>
        <mxCell id="m8OP1QcmDbiN_umO_oYW-48" value="obtenha 2º&lt;div&gt;&amp;nbsp;nota&lt;/div&gt;" style="shape=parallelogram;html=1;strokeWidth=2;perimeter=parallelogramPerimeter;whiteSpace=wrap;rounded=1;arcSize=12;size=0.23;fillColor=#cce5ff;strokeColor=#36393d;" vertex="1" parent="1">
          <mxGeometry x="950" y="790" width="100" height="60" as="geometry" />
        </mxCell>
        <mxCell id="m8OP1QcmDbiN_umO_oYW-49" value="calcular a média" style="rounded=1;whiteSpace=wrap;html=1;absoluteArcSize=1;arcSize=14;strokeWidth=2;fillColor=#cdeb8b;strokeColor=#36393d;" vertex="1" parent="1">
          <mxGeometry x="950" y="990" width="100" height="70" as="geometry" />
        </mxCell>
        <mxCell id="m8OP1QcmDbiN_umO_oYW-50" value="Média é acima de 7?" style="strokeWidth=2;html=1;shape=mxgraph.flowchart.decision;whiteSpace=wrap;fillColor=#ffcccc;strokeColor=#36393d;" vertex="1" parent="1">
          <mxGeometry x="950" y="1075" width="100" height="75" as="geometry" />
        </mxCell>
        <mxCell id="m8OP1QcmDbiN_umO_oYW-54" value="exibir reprovado" style="strokeWidth=2;html=1;shape=mxgraph.flowchart.display;whiteSpace=wrap;fillColor=#cce5ff;strokeColor=#36393d;" vertex="1" parent="1">
          <mxGeometry x="827" y="1220" width="90" height="50" as="geometry" />
        </mxCell>
        <mxCell id="m8OP1QcmDbiN_umO_oYW-61" style="edgeStyle=orthogonalEdgeStyle;rounded=0;orthogonalLoop=1;jettySize=auto;html=1;" edge="1" parent="1" source="m8OP1QcmDbiN_umO_oYW-55" target="m8OP1QcmDbiN_umO_oYW-60">
          <mxGeometry relative="1" as="geometry" />
        </mxCell>
        <mxCell id="m8OP1QcmDbiN_umO_oYW-55" value="exibir aprovado" style="strokeWidth=2;html=1;shape=mxgraph.flowchart.display;whiteSpace=wrap;fillColor=#cce5ff;strokeColor=#36393d;" vertex="1" parent="1">
          <mxGeometry x="1070" y="1220" width="90" height="50" as="geometry" />
        </mxCell>
        <mxCell id="m8OP1QcmDbiN_umO_oYW-56" style="edgeStyle=orthogonalEdgeStyle;rounded=0;orthogonalLoop=1;jettySize=auto;html=1;entryX=0.578;entryY=-0.012;entryDx=0;entryDy=0;entryPerimeter=0;" edge="1" parent="1" source="m8OP1QcmDbiN_umO_oYW-50" target="m8OP1QcmDbiN_umO_oYW-55">
          <mxGeometry relative="1" as="geometry" />
        </mxCell>
        <mxCell id="m8OP1QcmDbiN_umO_oYW-58" value="sim" style="edgeLabel;html=1;align=center;verticalAlign=middle;resizable=0;points=[];" vertex="1" connectable="0" parent="m8OP1QcmDbiN_umO_oYW-56">
          <mxGeometry x="-0.1582" y="1" relative="1" as="geometry">
            <mxPoint y="15" as="offset" />
          </mxGeometry>
        </mxCell>
        <mxCell id="m8OP1QcmDbiN_umO_oYW-60" value="fim&lt;div&gt;&lt;br&gt;&lt;/div&gt;" style="strokeWidth=2;html=1;shape=mxgraph.flowchart.start_1;whiteSpace=wrap;fillColor=#eeeeee;strokeColor=#36393d;" vertex="1" parent="1">
          <mxGeometry x="950" y="1330" width="100" height="360" as="geometry" />
        </mxCell>
        <mxCell id="m8OP1QcmDbiN_umO_oYW-64" style="edgeStyle=orthogonalEdgeStyle;rounded=0;orthogonalLoop=1;jettySize=auto;html=1;entryX=0.589;entryY=0;entryDx=0;entryDy=0;entryPerimeter=0;" edge="1" parent="1" source="m8OP1QcmDbiN_umO_oYW-50" target="m8OP1QcmDbiN_umO_oYW-54">
          <mxGeometry relative="1" as="geometry" />
        </mxCell>
        <mxCell id="m8OP1QcmDbiN_umO_oYW-65" value="não" style="edgeLabel;html=1;align=center;verticalAlign=middle;resizable=0;points=[];" vertex="1" connectable="0" parent="m8OP1QcmDbiN_umO_oYW-64">
          <mxGeometry x="-0.0704" y="-1" relative="1" as="geometry">
            <mxPoint y="1" as="offset" />
          </mxGeometry>
        </mxCell>
        <mxCell id="m8OP1QcmDbiN_umO_oYW-66" style="edgeStyle=orthogonalEdgeStyle;rounded=0;orthogonalLoop=1;jettySize=auto;html=1;entryX=0.5;entryY=0;entryDx=0;entryDy=0;entryPerimeter=0;" edge="1" parent="1" source="m8OP1QcmDbiN_umO_oYW-54" target="m8OP1QcmDbiN_umO_oYW-60">
          <mxGeometry relative="1" as="geometry" />
        </mxCell>
        <mxCell id="m8OP1QcmDbiN_umO_oYW-67" style="edgeStyle=orthogonalEdgeStyle;rounded=0;orthogonalLoop=1;jettySize=auto;html=1;entryX=0.5;entryY=0;entryDx=0;entryDy=0;entryPerimeter=0;" edge="1" parent="1" source="m8OP1QcmDbiN_umO_oYW-49" target="m8OP1QcmDbiN_umO_oYW-50">
          <mxGeometry relative="1" as="geometry" />
        </mxCell>
        <mxCell id="m8OP1QcmDbiN_umO_oYW-71" style="edgeStyle=orthogonalEdgeStyle;rounded=0;orthogonalLoop=1;jettySize=auto;html=1;entryX=0.5;entryY=0;entryDx=0;entryDy=0;" edge="1" parent="1" source="m8OP1QcmDbiN_umO_oYW-72" target="m8OP1QcmDbiN_umO_oYW-76">
          <mxGeometry relative="1" as="geometry" />
        </mxCell>
        <mxCell id="m8OP1QcmDbiN_umO_oYW-72" value="início" style="strokeWidth=2;html=1;shape=mxgraph.flowchart.start_2;whiteSpace=wrap;fillColor=#ffff88;strokeColor=#36393d;" vertex="1" parent="1">
          <mxGeometry x="1333" y="660" width="100" height="100" as="geometry" />
        </mxCell>
        <mxCell id="m8OP1QcmDbiN_umO_oYW-75" style="edgeStyle=orthogonalEdgeStyle;rounded=0;orthogonalLoop=1;jettySize=auto;html=1;" edge="1" parent="1" source="m8OP1QcmDbiN_umO_oYW-76">
          <mxGeometry relative="1" as="geometry">
            <mxPoint x="1383" y="890" as="targetPoint" />
          </mxGeometry>
        </mxCell>
        <mxCell id="m8OP1QcmDbiN_umO_oYW-76" value="obtenha nº" style="shape=parallelogram;html=1;strokeWidth=2;perimeter=parallelogramPerimeter;whiteSpace=wrap;rounded=1;arcSize=12;size=0.23;fillColor=#cce5ff;strokeColor=#36393d;" vertex="1" parent="1">
          <mxGeometry x="1333" y="790" width="100" height="60" as="geometry" />
        </mxCell>
        <mxCell id="m8OP1QcmDbiN_umO_oYW-78" value="o número recebido é par?" style="strokeWidth=2;html=1;shape=mxgraph.flowchart.decision;whiteSpace=wrap;fillColor=#ffcccc;strokeColor=#36393d;" vertex="1" parent="1">
          <mxGeometry x="1333" y="890" width="100" height="75" as="geometry" />
        </mxCell>
        <mxCell id="m8OP1QcmDbiN_umO_oYW-79" value="exibir ÍMPAR" style="strokeWidth=2;html=1;shape=mxgraph.flowchart.display;whiteSpace=wrap;fillColor=#cce5ff;strokeColor=#36393d;" vertex="1" parent="1">
          <mxGeometry x="1200" y="1040" width="90" height="50" as="geometry" />
        </mxCell>
        <mxCell id="m8OP1QcmDbiN_umO_oYW-80" style="edgeStyle=orthogonalEdgeStyle;rounded=0;orthogonalLoop=1;jettySize=auto;html=1;" edge="1" parent="1" source="m8OP1QcmDbiN_umO_oYW-81" target="m8OP1QcmDbiN_umO_oYW-84">
          <mxGeometry relative="1" as="geometry" />
        </mxCell>
        <mxCell id="m8OP1QcmDbiN_umO_oYW-81" value="exibir PAR" style="strokeWidth=2;html=1;shape=mxgraph.flowchart.display;whiteSpace=wrap;fillColor=#cce5ff;strokeColor=#36393d;" vertex="1" parent="1">
          <mxGeometry x="1443" y="1040" width="90" height="50" as="geometry" />
        </mxCell>
        <mxCell id="m8OP1QcmDbiN_umO_oYW-82" style="edgeStyle=orthogonalEdgeStyle;rounded=0;orthogonalLoop=1;jettySize=auto;html=1;entryX=0.578;entryY=-0.012;entryDx=0;entryDy=0;entryPerimeter=0;" edge="1" parent="1" source="m8OP1QcmDbiN_umO_oYW-78" target="m8OP1QcmDbiN_umO_oYW-81">
          <mxGeometry relative="1" as="geometry" />
        </mxCell>
        <mxCell id="m8OP1QcmDbiN_umO_oYW-83" value="sim" style="edgeLabel;html=1;align=center;verticalAlign=middle;resizable=0;points=[];" vertex="1" connectable="0" parent="m8OP1QcmDbiN_umO_oYW-82">
          <mxGeometry x="-0.1582" y="1" relative="1" as="geometry">
            <mxPoint y="15" as="offset" />
          </mxGeometry>
        </mxCell>
        <mxCell id="m8OP1QcmDbiN_umO_oYW-84" value="fim&lt;div&gt;&lt;br&gt;&lt;/div&gt;" style="strokeWidth=2;html=1;shape=mxgraph.flowchart.start_1;whiteSpace=wrap;fillColor=#eeeeee;strokeColor=#36393d;" vertex="1" parent="1">
          <mxGeometry x="1323" y="1150" width="100" height="360" as="geometry" />
        </mxCell>
        <mxCell id="m8OP1QcmDbiN_umO_oYW-85" style="edgeStyle=orthogonalEdgeStyle;rounded=0;orthogonalLoop=1;jettySize=auto;html=1;entryX=0.589;entryY=0;entryDx=0;entryDy=0;entryPerimeter=0;" edge="1" parent="1" source="m8OP1QcmDbiN_umO_oYW-78" target="m8OP1QcmDbiN_umO_oYW-79">
          <mxGeometry relative="1" as="geometry" />
        </mxCell>
        <mxCell id="m8OP1QcmDbiN_umO_oYW-86" value="não" style="edgeLabel;html=1;align=center;verticalAlign=middle;resizable=0;points=[];" vertex="1" connectable="0" parent="m8OP1QcmDbiN_umO_oYW-85">
          <mxGeometry x="-0.0704" y="-1" relative="1" as="geometry">
            <mxPoint y="1" as="offset" />
          </mxGeometry>
        </mxCell>
        <mxCell id="m8OP1QcmDbiN_umO_oYW-87" style="edgeStyle=orthogonalEdgeStyle;rounded=0;orthogonalLoop=1;jettySize=auto;html=1;entryX=0.5;entryY=0;entryDx=0;entryDy=0;entryPerimeter=0;" edge="1" parent="1" source="m8OP1QcmDbiN_umO_oYW-79" target="m8OP1QcmDbiN_umO_oYW-84">
          <mxGeometry relative="1" as="geometry" />
        </mxCell>
        <mxCell id="m8OP1QcmDbiN_umO_oYW-89" style="edgeStyle=orthogonalEdgeStyle;rounded=0;orthogonalLoop=1;jettySize=auto;html=1;entryX=0.5;entryY=0;entryDx=0;entryDy=0;" edge="1" parent="1" source="m8OP1QcmDbiN_umO_oYW-90" target="m8OP1QcmDbiN_umO_oYW-94">
          <mxGeometry relative="1" as="geometry" />
        </mxCell>
        <mxCell id="m8OP1QcmDbiN_umO_oYW-90" value="início" style="strokeWidth=2;html=1;shape=mxgraph.flowchart.start_2;whiteSpace=wrap;fillColor=#ffff88;strokeColor=#36393d;" vertex="1" parent="1">
          <mxGeometry x="1693" y="660" width="100" height="100" as="geometry" />
        </mxCell>
        <mxCell id="m8OP1QcmDbiN_umO_oYW-107" style="edgeStyle=orthogonalEdgeStyle;rounded=0;orthogonalLoop=1;jettySize=auto;html=1;" edge="1" parent="1" source="m8OP1QcmDbiN_umO_oYW-94" target="m8OP1QcmDbiN_umO_oYW-96">
          <mxGeometry relative="1" as="geometry" />
        </mxCell>
        <mxCell id="m8OP1QcmDbiN_umO_oYW-94" value="Pedir a idade de uma pessoa" style="shape=parallelogram;html=1;strokeWidth=2;perimeter=parallelogramPerimeter;whiteSpace=wrap;rounded=1;arcSize=12;size=0.23;fillColor=#cce5ff;strokeColor=#36393d;" vertex="1" parent="1">
          <mxGeometry x="1693" y="790" width="100" height="60" as="geometry" />
        </mxCell>
        <mxCell id="m8OP1QcmDbiN_umO_oYW-96" value="a idade da pessoa é acima de 18?" style="strokeWidth=2;html=1;shape=mxgraph.flowchart.decision;whiteSpace=wrap;fillColor=#ffcccc;strokeColor=#36393d;" vertex="1" parent="1">
          <mxGeometry x="1699.5" y="895" width="100" height="75" as="geometry" />
        </mxCell>
        <mxCell id="m8OP1QcmDbiN_umO_oYW-97" value="exibir não pode dirigir" style="strokeWidth=2;html=1;shape=mxgraph.flowchart.display;whiteSpace=wrap;fillColor=#cce5ff;strokeColor=#36393d;" vertex="1" parent="1">
          <mxGeometry x="1576.5" y="1040" width="90" height="50" as="geometry" />
        </mxCell>
        <mxCell id="m8OP1QcmDbiN_umO_oYW-98" style="edgeStyle=orthogonalEdgeStyle;rounded=0;orthogonalLoop=1;jettySize=auto;html=1;" edge="1" parent="1" source="m8OP1QcmDbiN_umO_oYW-99" target="m8OP1QcmDbiN_umO_oYW-102">
          <mxGeometry relative="1" as="geometry" />
        </mxCell>
        <mxCell id="m8OP1QcmDbiN_umO_oYW-99" value="exibir pode dirigir" style="strokeWidth=2;html=1;shape=mxgraph.flowchart.display;whiteSpace=wrap;fillColor=#cce5ff;strokeColor=#36393d;" vertex="1" parent="1">
          <mxGeometry x="1819.5" y="1040" width="90" height="50" as="geometry" />
        </mxCell>
        <mxCell id="m8OP1QcmDbiN_umO_oYW-100" style="edgeStyle=orthogonalEdgeStyle;rounded=0;orthogonalLoop=1;jettySize=auto;html=1;entryX=0.578;entryY=-0.012;entryDx=0;entryDy=0;entryPerimeter=0;" edge="1" parent="1" source="m8OP1QcmDbiN_umO_oYW-96" target="m8OP1QcmDbiN_umO_oYW-99">
          <mxGeometry relative="1" as="geometry" />
        </mxCell>
        <mxCell id="m8OP1QcmDbiN_umO_oYW-101" value="sim" style="edgeLabel;html=1;align=center;verticalAlign=middle;resizable=0;points=[];" vertex="1" connectable="0" parent="m8OP1QcmDbiN_umO_oYW-100">
          <mxGeometry x="-0.1582" y="1" relative="1" as="geometry">
            <mxPoint y="15" as="offset" />
          </mxGeometry>
        </mxCell>
        <mxCell id="m8OP1QcmDbiN_umO_oYW-102" value="fim&lt;div&gt;&lt;br&gt;&lt;/div&gt;" style="strokeWidth=2;html=1;shape=mxgraph.flowchart.start_1;whiteSpace=wrap;fillColor=#eeeeee;strokeColor=#36393d;" vertex="1" parent="1">
          <mxGeometry x="1699.5" y="1150" width="100" height="360" as="geometry" />
        </mxCell>
        <mxCell id="m8OP1QcmDbiN_umO_oYW-103" style="edgeStyle=orthogonalEdgeStyle;rounded=0;orthogonalLoop=1;jettySize=auto;html=1;entryX=0.589;entryY=0;entryDx=0;entryDy=0;entryPerimeter=0;" edge="1" parent="1" source="m8OP1QcmDbiN_umO_oYW-96" target="m8OP1QcmDbiN_umO_oYW-97">
          <mxGeometry relative="1" as="geometry" />
        </mxCell>
        <mxCell id="m8OP1QcmDbiN_umO_oYW-104" value="não" style="edgeLabel;html=1;align=center;verticalAlign=middle;resizable=0;points=[];" vertex="1" connectable="0" parent="m8OP1QcmDbiN_umO_oYW-103">
          <mxGeometry x="-0.0704" y="-1" relative="1" as="geometry">
            <mxPoint y="1" as="offset" />
          </mxGeometry>
        </mxCell>
        <mxCell id="m8OP1QcmDbiN_umO_oYW-105" style="edgeStyle=orthogonalEdgeStyle;rounded=0;orthogonalLoop=1;jettySize=auto;html=1;entryX=0.5;entryY=0;entryDx=0;entryDy=0;entryPerimeter=0;" edge="1" parent="1" source="m8OP1QcmDbiN_umO_oYW-97" target="m8OP1QcmDbiN_umO_oYW-102">
          <mxGeometry relative="1" as="geometry" />
        </mxCell>
        <mxCell id="m8OP1QcmDbiN_umO_oYW-108" style="edgeStyle=orthogonalEdgeStyle;rounded=0;orthogonalLoop=1;jettySize=auto;html=1;entryX=0.5;entryY=0;entryDx=0;entryDy=0;" edge="1" parent="1" source="m8OP1QcmDbiN_umO_oYW-109" target="m8OP1QcmDbiN_umO_oYW-113">
          <mxGeometry relative="1" as="geometry" />
        </mxCell>
        <mxCell id="m8OP1QcmDbiN_umO_oYW-109" value="início" style="strokeWidth=2;html=1;shape=mxgraph.flowchart.start_2;whiteSpace=wrap;fillColor=#ffff88;strokeColor=#36393d;" vertex="1" parent="1">
          <mxGeometry x="2083" y="660" width="100" height="100" as="geometry" />
        </mxCell>
        <mxCell id="m8OP1QcmDbiN_umO_oYW-126" style="edgeStyle=orthogonalEdgeStyle;rounded=0;orthogonalLoop=1;jettySize=auto;html=1;" edge="1" parent="1" source="m8OP1QcmDbiN_umO_oYW-113" target="m8OP1QcmDbiN_umO_oYW-115">
          <mxGeometry relative="1" as="geometry" />
        </mxCell>
        <mxCell id="m8OP1QcmDbiN_umO_oYW-113" value="obtenha nº da&lt;div&gt;temperatura&lt;/div&gt;" style="shape=parallelogram;html=1;strokeWidth=2;perimeter=parallelogramPerimeter;whiteSpace=wrap;rounded=1;arcSize=12;size=0.23;fillColor=#cce5ff;strokeColor=#36393d;" vertex="1" parent="1">
          <mxGeometry x="2083" y="790" width="100" height="60" as="geometry" />
        </mxCell>
        <mxCell id="m8OP1QcmDbiN_umO_oYW-127" style="edgeStyle=orthogonalEdgeStyle;rounded=0;orthogonalLoop=1;jettySize=auto;html=1;" edge="1" parent="1" source="m8OP1QcmDbiN_umO_oYW-115">
          <mxGeometry relative="1" as="geometry">
            <mxPoint x="2000" y="1040" as="targetPoint" />
          </mxGeometry>
        </mxCell>
        <mxCell id="m8OP1QcmDbiN_umO_oYW-130" value="sim" style="edgeLabel;html=1;align=center;verticalAlign=middle;resizable=0;points=[];" vertex="1" connectable="0" parent="m8OP1QcmDbiN_umO_oYW-127">
          <mxGeometry x="-0.6189" y="1" relative="1" as="geometry">
            <mxPoint as="offset" />
          </mxGeometry>
        </mxCell>
        <mxCell id="m8OP1QcmDbiN_umO_oYW-128" style="edgeStyle=orthogonalEdgeStyle;rounded=0;orthogonalLoop=1;jettySize=auto;html=1;" edge="1" parent="1" source="m8OP1QcmDbiN_umO_oYW-115">
          <mxGeometry relative="1" as="geometry">
            <mxPoint x="2280" y="1040" as="targetPoint" />
          </mxGeometry>
        </mxCell>
        <mxCell id="m8OP1QcmDbiN_umO_oYW-129" value="nâo&lt;br&gt;&lt;div&gt;&lt;br&gt;&lt;/div&gt;" style="edgeLabel;html=1;align=center;verticalAlign=middle;resizable=0;points=[];" vertex="1" connectable="0" parent="m8OP1QcmDbiN_umO_oYW-128">
          <mxGeometry x="-0.3914" y="-4" relative="1" as="geometry">
            <mxPoint as="offset" />
          </mxGeometry>
        </mxCell>
        <mxCell id="m8OP1QcmDbiN_umO_oYW-115" value="a temperatura é menor que 0?" style="strokeWidth=2;html=1;shape=mxgraph.flowchart.decision;whiteSpace=wrap;fillColor=#ffcccc;strokeColor=#36393d;" vertex="1" parent="1">
          <mxGeometry x="2089.5" y="920" width="100" height="75" as="geometry" />
        </mxCell>
        <mxCell id="m8OP1QcmDbiN_umO_oYW-121" value="fim&lt;div&gt;&lt;br&gt;&lt;/div&gt;" style="strokeWidth=2;html=1;shape=mxgraph.flowchart.start_1;whiteSpace=wrap;fillColor=#eeeeee;strokeColor=#36393d;" vertex="1" parent="1">
          <mxGeometry x="2018" y="1280" width="100" height="360" as="geometry" />
        </mxCell>
        <mxCell id="m8OP1QcmDbiN_umO_oYW-131" value="exibir estado congelado" style="strokeWidth=2;html=1;shape=mxgraph.flowchart.display;whiteSpace=wrap;fillColor=#cce5ff;strokeColor=#36393d;" vertex="1" parent="1">
          <mxGeometry x="1950" y="1039" width="90" height="50" as="geometry" />
        </mxCell>
        <mxCell id="m8OP1QcmDbiN_umO_oYW-133" style="edgeStyle=orthogonalEdgeStyle;rounded=0;orthogonalLoop=1;jettySize=auto;html=1;" edge="1" parent="1" source="m8OP1QcmDbiN_umO_oYW-132">
          <mxGeometry relative="1" as="geometry">
            <mxPoint x="2120" y="1150" as="targetPoint" />
            <Array as="points">
              <mxPoint x="2120" y="1078" />
              <mxPoint x="2120" y="1140" />
            </Array>
          </mxGeometry>
        </mxCell>
        <mxCell id="m8OP1QcmDbiN_umO_oYW-144" value="sim" style="edgeLabel;html=1;align=center;verticalAlign=middle;resizable=0;points=[];" vertex="1" connectable="0" parent="m8OP1QcmDbiN_umO_oYW-133">
          <mxGeometry x="-0.4055" y="-3" relative="1" as="geometry">
            <mxPoint x="-1" as="offset" />
          </mxGeometry>
        </mxCell>
        <mxCell id="m8OP1QcmDbiN_umO_oYW-134" style="edgeStyle=orthogonalEdgeStyle;rounded=0;orthogonalLoop=1;jettySize=auto;html=1;" edge="1" parent="1" source="m8OP1QcmDbiN_umO_oYW-132">
          <mxGeometry relative="1" as="geometry">
            <mxPoint x="2440" y="1150" as="targetPoint" />
          </mxGeometry>
        </mxCell>
        <mxCell id="m8OP1QcmDbiN_umO_oYW-143" value="não" style="edgeLabel;html=1;align=center;verticalAlign=middle;resizable=0;points=[];" vertex="1" connectable="0" parent="m8OP1QcmDbiN_umO_oYW-134">
          <mxGeometry x="-0.4317" y="3" relative="1" as="geometry">
            <mxPoint x="-1" as="offset" />
          </mxGeometry>
        </mxCell>
        <mxCell id="m8OP1QcmDbiN_umO_oYW-132" value="a temperatura é&amp;nbsp;&lt;div&gt;maior que 100?&lt;/div&gt;" style="strokeWidth=2;html=1;shape=mxgraph.flowchart.decision;whiteSpace=wrap;fillColor=#ffcccc;strokeColor=#36393d;" vertex="1" parent="1">
          <mxGeometry x="2230" y="1040" width="100" height="75" as="geometry" />
        </mxCell>
        <mxCell id="m8OP1QcmDbiN_umO_oYW-135" value="exibir estado gasoso" style="strokeWidth=2;html=1;shape=mxgraph.flowchart.display;whiteSpace=wrap;fillColor=#cce5ff;strokeColor=#36393d;" vertex="1" parent="1">
          <mxGeometry x="2068" y="1150" width="90" height="50" as="geometry" />
        </mxCell>
        <mxCell id="m8OP1QcmDbiN_umO_oYW-137" style="edgeStyle=orthogonalEdgeStyle;rounded=0;orthogonalLoop=1;jettySize=auto;html=1;" edge="1" parent="1" source="m8OP1QcmDbiN_umO_oYW-136">
          <mxGeometry relative="1" as="geometry">
            <mxPoint x="2280" y="1250" as="targetPoint" />
          </mxGeometry>
        </mxCell>
        <mxCell id="m8OP1QcmDbiN_umO_oYW-145" value="sim" style="edgeLabel;html=1;align=center;verticalAlign=middle;resizable=0;points=[];" vertex="1" connectable="0" parent="m8OP1QcmDbiN_umO_oYW-137">
          <mxGeometry x="-0.3983" y="-1" relative="1" as="geometry">
            <mxPoint x="-1" as="offset" />
          </mxGeometry>
        </mxCell>
        <mxCell id="m8OP1QcmDbiN_umO_oYW-136" value="a temperatura é&amp;nbsp;&lt;div&gt;entre 0 a 100?&lt;/div&gt;" style="strokeWidth=2;html=1;shape=mxgraph.flowchart.decision;whiteSpace=wrap;fillColor=#ffcccc;strokeColor=#36393d;" vertex="1" parent="1">
          <mxGeometry x="2390" y="1150" width="100" height="75" as="geometry" />
        </mxCell>
        <mxCell id="m8OP1QcmDbiN_umO_oYW-138" value="exibir estado liquido" style="strokeWidth=2;html=1;shape=mxgraph.flowchart.display;whiteSpace=wrap;fillColor=#cce5ff;strokeColor=#36393d;" vertex="1" parent="1">
          <mxGeometry x="2230" y="1250" width="90" height="50" as="geometry" />
        </mxCell>
        <mxCell id="m8OP1QcmDbiN_umO_oYW-139" style="edgeStyle=orthogonalEdgeStyle;rounded=0;orthogonalLoop=1;jettySize=auto;html=1;entryX=0.5;entryY=0;entryDx=0;entryDy=0;entryPerimeter=0;" edge="1" parent="1" source="m8OP1QcmDbiN_umO_oYW-131" target="m8OP1QcmDbiN_umO_oYW-121">
          <mxGeometry relative="1" as="geometry" />
        </mxCell>
        <mxCell id="m8OP1QcmDbiN_umO_oYW-141" style="edgeStyle=orthogonalEdgeStyle;rounded=0;orthogonalLoop=1;jettySize=auto;html=1;entryX=0.5;entryY=0;entryDx=0;entryDy=0;entryPerimeter=0;" edge="1" parent="1" source="m8OP1QcmDbiN_umO_oYW-135" target="m8OP1QcmDbiN_umO_oYW-121">
          <mxGeometry relative="1" as="geometry" />
        </mxCell>
        <mxCell id="m8OP1QcmDbiN_umO_oYW-142" style="edgeStyle=orthogonalEdgeStyle;rounded=0;orthogonalLoop=1;jettySize=auto;html=1;entryX=0.5;entryY=0;entryDx=0;entryDy=0;entryPerimeter=0;" edge="1" parent="1" source="m8OP1QcmDbiN_umO_oYW-138" target="m8OP1QcmDbiN_umO_oYW-121">
          <mxGeometry relative="1" as="geometry" />
        </mxCell>
        <mxCell id="m8OP1QcmDbiN_umO_oYW-146" style="edgeStyle=orthogonalEdgeStyle;rounded=0;orthogonalLoop=1;jettySize=auto;html=1;entryX=0.5;entryY=0;entryDx=0;entryDy=0;" edge="1" parent="1" source="m8OP1QcmDbiN_umO_oYW-147" target="m8OP1QcmDbiN_umO_oYW-151">
          <mxGeometry relative="1" as="geometry" />
        </mxCell>
        <mxCell id="m8OP1QcmDbiN_umO_oYW-147" value="início" style="strokeWidth=2;html=1;shape=mxgraph.flowchart.start_2;whiteSpace=wrap;fillColor=#ffff88;strokeColor=#36393d;" vertex="1" parent="1">
          <mxGeometry x="2723" y="660" width="100" height="100" as="geometry" />
        </mxCell>
        <mxCell id="m8OP1QcmDbiN_umO_oYW-151" value="obtenha a idade" style="shape=parallelogram;html=1;strokeWidth=2;perimeter=parallelogramPerimeter;whiteSpace=wrap;rounded=1;arcSize=12;size=0.23;fillColor=#cce5ff;strokeColor=#36393d;" vertex="1" parent="1">
          <mxGeometry x="2723" y="790" width="100" height="60" as="geometry" />
        </mxCell>
        <mxCell id="m8OP1QcmDbiN_umO_oYW-165" style="edgeStyle=orthogonalEdgeStyle;rounded=0;orthogonalLoop=1;jettySize=auto;html=1;" edge="1" parent="1" source="m8OP1QcmDbiN_umO_oYW-153">
          <mxGeometry relative="1" as="geometry">
            <mxPoint x="2640" y="1000.0000000000002" as="targetPoint" />
          </mxGeometry>
        </mxCell>
        <mxCell id="m8OP1QcmDbiN_umO_oYW-183" value="sim" style="edgeLabel;html=1;align=center;verticalAlign=middle;resizable=0;points=[];" vertex="1" connectable="0" parent="m8OP1QcmDbiN_umO_oYW-165">
          <mxGeometry x="-0.3058" relative="1" as="geometry">
            <mxPoint as="offset" />
          </mxGeometry>
        </mxCell>
        <mxCell id="m8OP1QcmDbiN_umO_oYW-166" style="edgeStyle=orthogonalEdgeStyle;rounded=0;orthogonalLoop=1;jettySize=auto;html=1;" edge="1" parent="1" source="m8OP1QcmDbiN_umO_oYW-153">
          <mxGeometry relative="1" as="geometry">
            <mxPoint x="2920" y="1000.0000000000002" as="targetPoint" />
          </mxGeometry>
        </mxCell>
        <mxCell id="m8OP1QcmDbiN_umO_oYW-182" value="não" style="edgeLabel;html=1;align=center;verticalAlign=middle;resizable=0;points=[];" vertex="1" connectable="0" parent="m8OP1QcmDbiN_umO_oYW-166">
          <mxGeometry x="-0.266" relative="1" as="geometry">
            <mxPoint as="offset" />
          </mxGeometry>
        </mxCell>
        <mxCell id="m8OP1QcmDbiN_umO_oYW-153" value="é menor que 16?" style="strokeWidth=2;html=1;shape=mxgraph.flowchart.decision;whiteSpace=wrap;fillColor=#ffcccc;strokeColor=#36393d;" vertex="1" parent="1">
          <mxGeometry x="2729.5" y="912.5" width="100" height="75" as="geometry" />
        </mxCell>
        <mxCell id="m8OP1QcmDbiN_umO_oYW-159" value="fim&lt;div&gt;&lt;br&gt;&lt;/div&gt;" style="strokeWidth=2;html=1;shape=mxgraph.flowchart.start_1;whiteSpace=wrap;fillColor=#eeeeee;strokeColor=#36393d;" vertex="1" parent="1">
          <mxGeometry x="2670" y="1190" width="100" height="360" as="geometry" />
        </mxCell>
        <mxCell id="m8OP1QcmDbiN_umO_oYW-164" style="edgeStyle=orthogonalEdgeStyle;rounded=0;orthogonalLoop=1;jettySize=auto;html=1;entryX=0.5;entryY=0;entryDx=0;entryDy=0;entryPerimeter=0;" edge="1" parent="1" source="m8OP1QcmDbiN_umO_oYW-151" target="m8OP1QcmDbiN_umO_oYW-153">
          <mxGeometry relative="1" as="geometry" />
        </mxCell>
        <mxCell id="m8OP1QcmDbiN_umO_oYW-169" style="edgeStyle=orthogonalEdgeStyle;rounded=0;orthogonalLoop=1;jettySize=auto;html=1;" edge="1" parent="1" source="m8OP1QcmDbiN_umO_oYW-167">
          <mxGeometry relative="1" as="geometry">
            <mxPoint x="2800" y="1080.0000000000002" as="targetPoint" />
          </mxGeometry>
        </mxCell>
        <mxCell id="m8OP1QcmDbiN_umO_oYW-181" value="sim" style="edgeLabel;html=1;align=center;verticalAlign=middle;resizable=0;points=[];" vertex="1" connectable="0" parent="m8OP1QcmDbiN_umO_oYW-169">
          <mxGeometry x="-0.5197" y="-1" relative="1" as="geometry">
            <mxPoint as="offset" />
          </mxGeometry>
        </mxCell>
        <mxCell id="m8OP1QcmDbiN_umO_oYW-170" style="edgeStyle=orthogonalEdgeStyle;rounded=0;orthogonalLoop=1;jettySize=auto;html=1;" edge="1" parent="1" source="m8OP1QcmDbiN_umO_oYW-167">
          <mxGeometry relative="1" as="geometry">
            <mxPoint x="3040" y="1080.0000000000002" as="targetPoint" />
          </mxGeometry>
        </mxCell>
        <mxCell id="m8OP1QcmDbiN_umO_oYW-180" value="não" style="edgeLabel;html=1;align=center;verticalAlign=middle;resizable=0;points=[];" vertex="1" connectable="0" parent="m8OP1QcmDbiN_umO_oYW-170">
          <mxGeometry x="-0.4156" y="-1" relative="1" as="geometry">
            <mxPoint as="offset" />
          </mxGeometry>
        </mxCell>
        <mxCell id="m8OP1QcmDbiN_umO_oYW-167" value="é maior que 18?" style="strokeWidth=2;html=1;shape=mxgraph.flowchart.decision;whiteSpace=wrap;fillColor=#ffcccc;strokeColor=#36393d;" vertex="1" parent="1">
          <mxGeometry x="2870" y="997.5" width="100" height="75" as="geometry" />
        </mxCell>
        <mxCell id="m8OP1QcmDbiN_umO_oYW-176" style="edgeStyle=orthogonalEdgeStyle;rounded=0;orthogonalLoop=1;jettySize=auto;html=1;" edge="1" parent="1" source="m8OP1QcmDbiN_umO_oYW-168" target="m8OP1QcmDbiN_umO_oYW-159">
          <mxGeometry relative="1" as="geometry" />
        </mxCell>
        <mxCell id="m8OP1QcmDbiN_umO_oYW-168" value="exibir não pode votar" style="strokeWidth=2;html=1;shape=mxgraph.flowchart.display;whiteSpace=wrap;fillColor=#cce5ff;strokeColor=#36393d;" vertex="1" parent="1">
          <mxGeometry x="2590" y="1000" width="90" height="50" as="geometry" />
        </mxCell>
        <mxCell id="m8OP1QcmDbiN_umO_oYW-171" value="exibir obrigado votar" style="strokeWidth=2;html=1;shape=mxgraph.flowchart.display;whiteSpace=wrap;fillColor=#cce5ff;strokeColor=#36393d;" vertex="1" parent="1">
          <mxGeometry x="2750" y="1080" width="90" height="50" as="geometry" />
        </mxCell>
        <mxCell id="m8OP1QcmDbiN_umO_oYW-175" style="edgeStyle=orthogonalEdgeStyle;rounded=0;orthogonalLoop=1;jettySize=auto;html=1;" edge="1" parent="1" source="m8OP1QcmDbiN_umO_oYW-173">
          <mxGeometry relative="1" as="geometry">
            <mxPoint x="2920" y="1160.0000000000002" as="targetPoint" />
          </mxGeometry>
        </mxCell>
        <mxCell id="m8OP1QcmDbiN_umO_oYW-179" value="sim" style="edgeLabel;html=1;align=center;verticalAlign=middle;resizable=0;points=[];" vertex="1" connectable="0" parent="m8OP1QcmDbiN_umO_oYW-175">
          <mxGeometry x="-0.442" relative="1" as="geometry">
            <mxPoint as="offset" />
          </mxGeometry>
        </mxCell>
        <mxCell id="m8OP1QcmDbiN_umO_oYW-173" value="tem a idade entre 16 a 17 ou acima de 70?" style="strokeWidth=2;html=1;shape=mxgraph.flowchart.decision;whiteSpace=wrap;fillColor=#ffcccc;strokeColor=#36393d;" vertex="1" parent="1">
          <mxGeometry x="2990" y="1080" width="100" height="75" as="geometry" />
        </mxCell>
        <mxCell id="m8OP1QcmDbiN_umO_oYW-174" value="exibir votação opcional" style="strokeWidth=2;html=1;shape=mxgraph.flowchart.display;whiteSpace=wrap;fillColor=#cce5ff;strokeColor=#36393d;" vertex="1" parent="1">
          <mxGeometry x="2870" y="1160" width="90" height="50" as="geometry" />
        </mxCell>
        <mxCell id="m8OP1QcmDbiN_umO_oYW-177" style="edgeStyle=orthogonalEdgeStyle;rounded=0;orthogonalLoop=1;jettySize=auto;html=1;entryX=0.5;entryY=0;entryDx=0;entryDy=0;entryPerimeter=0;" edge="1" parent="1" source="m8OP1QcmDbiN_umO_oYW-171" target="m8OP1QcmDbiN_umO_oYW-159">
          <mxGeometry relative="1" as="geometry" />
        </mxCell>
        <mxCell id="m8OP1QcmDbiN_umO_oYW-178" style="edgeStyle=orthogonalEdgeStyle;rounded=0;orthogonalLoop=1;jettySize=auto;html=1;entryX=0.5;entryY=0;entryDx=0;entryDy=0;entryPerimeter=0;" edge="1" parent="1" source="m8OP1QcmDbiN_umO_oYW-174" target="m8OP1QcmDbiN_umO_oYW-159">
          <mxGeometry relative="1" as="geometry" />
        </mxCell>
      </root>
    </mxGraphModel>
  </diagram>
</mxfile>
